<?xml version="1.0" encoding="UTF-8" standalone="no"?>
<!-- Generator: Adobe Illustrator 15.1.0, SVG Export Plug-In . SVG Version: 6.00 Build 0)  -->

<svg
   version="1.1"
   id="Layer_1"
   x="0px"
   y="0px"
   width="1322.3378"
   height="1021.2557"
   viewBox="0 0 1322.3378 1021.2557"
   enable-background="new 0 0 1354 819"
   xml:space="preserve"
   sodipodi:docname="not_desired_behavior.svg"
   inkscape:version="1.3.2 (091e20e, 2023-11-25, custom)"
   xmlns:inkscape="http://www.inkscape.org/namespaces/inkscape"
   xmlns:sodipodi="http://sodipodi.sourceforge.net/DTD/sodipodi-0.dtd"
   xmlns:xlink="http://www.w3.org/1999/xlink"
   xmlns="http://www.w3.org/2000/svg"
   xmlns:svg="http://www.w3.org/2000/svg"><defs
   id="defs15" /><sodipodi:namedview
   id="namedview15"
   pagecolor="#ffffff"
   bordercolor="#000000"
   borderopacity="0.25"
   inkscape:showpageshadow="2"
   inkscape:pageopacity="0.0"
   inkscape:pagecheckerboard="0"
   inkscape:deskcolor="#d1d1d1"
   inkscape:zoom="0.35441677"
   inkscape:cx="1115.9179"
   inkscape:cy="311.77983"
   inkscape:window-width="1920"
   inkscape:window-height="1017"
   inkscape:window-x="-8"
   inkscape:window-y="-8"
   inkscape:window-maximized="1"
   inkscape:current-layer="Layer_1" />
<!--<rect fill="#FFFFFF" width="1354" height="819"/>-->
<path
   fill="#8f1f1d"
   d="m 787.74078,532.30565 c -131.633,0 -251.228,15.825 -339.77,41.615 v 220.298 c 88.542,25.79 208.137,41.614 339.77,41.614 150.657,0 285.53502,-20.729 376.13402,-53.402 v -196.718 c -90.599,-32.676 -225.47702,-53.407 -376.13402,-53.407"
   id="path1" />
<path
   fill="#8f1f1d"
   d="m 1169.7608,731.69765 c -3.856,-10.663 -4.629,-24.154 -1.36,-37.162 5.85,-23.289 22.421,-36.198 37.013,-28.833 3.618,1.827 6.773,4.73 9.387,8.418 0.239,-10e-4 0.479,0 0.715,0.016 0,0 44.552,53.106 3.313,116.003 -0.896,3.569 -76.534,91.718 -94.043,94.524 -11.461,1.836 14.89,-89.998 44.975,-152.966"
   id="path2" />
<path
   fill="#8f1f1d"
   d="m 438.81678,721.27665 c 5.3,-9.631 7.158,-22.788 4.217,-36.426 -5.266,-24.416 -23.91,-41.109 -41.642,-37.285 -4.398,0.948 -8.325,3.072 -11.666,6.099 -0.282,-0.059 -0.564,-0.113 -0.845,-0.153 0,0 -56.292,41.952 -12.057,113.924 0.805,3.741 83.851,108.838 104.311,115.764 13.391,4.531 -11.247,-92.526 -42.318,-161.923"
   id="path3" />
<path
   fill="#e23a26"
   d="m 359.80478,727.32165 0.007,0.015 c 0.185,0.145 0.357,0.276 -0.007,-0.015"
   id="path4" />
<path
   fill="#e33b26"
   d="m 1255.4568,652.15865 c -0.88,-3.064 -1.756,-6.126 -2.662,-9.162 l 30.683,-44.451 c 3.13,-4.522 3.771,-10.398 1.73,-15.555 -2.04,-5.13 -6.49,-8.81 -11.76,-9.71 l -51.887,-8.805 c -2.008,-4.102 -4.115,-8.142 -6.229,-12.15 l 21.797,-49.903 c 2.243,-5.087 1.769,-10.995 -1.203,-15.608 -2.961,-4.636 -7.99,-7.344 -13.349,-7.133 l -52.656,1.913 c -2.727,-3.55 -5.496,-7.068 -8.322,-10.521 l 12.102,-53.49 c 1.225,-5.433 -0.322,-11.118 -4.104,-15.064 -3.762,-3.932 -9.229,-5.559 -14.426,-4.283 l -51.289,12.608 c -3.321,-2.935 -6.699,-5.833 -10.114,-8.673 l 1.849,-54.914 c 0.197,-5.559 -2.394,-10.842 -6.845,-13.925 -4.445,-3.104 -10.093,-3.573 -14.955,-1.266 l -47.848,22.747 c -3.854,-2.21 -7.728,-4.4 -11.644,-6.517 l -8.455,-54.115 c -0.857,-5.483 -4.386,-10.139 -9.32602,-12.266 -4.923,-2.137 -10.568,-1.447 -14.891,1.808 l -42.659,32.007 c -4.2,-1.395 -8.419,-2.732 -12.692,-4.011 l -18.386,-51.316 c -1.87,-5.229 -6.182,-9.071 -11.438,-10.151 -5.238,-1.072 -10.63,0.742 -14.263,4.802 l -35.907,40.171 c -4.342,-0.5 -8.685,-0.956 -13.043,-1.331 l -27.723,-46.713 c -2.811,-4.732 -7.771,-7.612 -13.116,-7.612 -5.334,0 -10.304,2.88 -13.09,7.612 l -27.733,46.713 c -4.358,0.375 -8.722,0.831 -13.056,1.331 l -35.91,-40.171 c -3.636,-4.06 -9.047,-5.874 -14.268,-4.802 -5.255,1.092 -9.573,4.922 -11.433,10.151 l -18.402,51.316 c -4.26,1.279 -8.481,2.627 -12.691,4.011 l -42.644,-32.007 c -4.336,-3.266 -9.98,-3.955 -14.916,-1.808 -4.919,2.127 -8.461,6.783 -9.313,12.266 l -8.461,54.115 c -3.914,2.117 -7.789,4.294 -11.653,6.517 l -47.842,-22.747 c -4.858,-2.316 -10.529,-1.838 -14.954,1.266 -4.445,3.083 -7.042,8.366 -6.84,13.925 l 1.835,54.914 c -3.405,2.84 -6.774,5.738 -10.112,8.673 l -51.279,-12.608 c -5.211,-1.265 -10.67,0.351 -14.441,4.283 -3.795,3.946 -5.332,9.631 -4.113,15.064 l 12.079,53.49 c -2.802,3.467 -5.575,6.971 -8.293,10.521 l -52.655,-1.913 c -5.314,-0.157 -10.386,2.497 -13.356,7.133 -2.974,4.613 -3.425,10.521 -1.211,15.608 l 21.814,49.903 c -2.119,4.008 -4.224,8.048 -6.249,12.15 l -51.882,8.805 c -5.271,0.888 -9.715,4.566 -11.765,9.71 -2.037,5.157 -1.375,11.033 1.735,15.555 l 30.69,44.451 c -0.236,0.784 -0.455,1.576 -0.69,2.364 l -16.863,17.911 45.341,64.05 c 0,0 435.152,200.731 838.79702,3.396 46.108,-8.273 56.855,-78.559 56.855,-78.559"
   id="path5" />
<path
   d="m 870.64078,616.01465 c 0,0 48.157,-52.729 96.315,0 0,0 37.84002,70.312 0,105.463 0,0 -61.917,49.218 -96.315,0 0,0 -41.279,-38.672 0,-105.463"
   id="path6" />
<path
   fill="#ffffff"
   d="m 926.39478,635.57565 c 0,20.532 -12.103,37.179 -27.029,37.179 -14.924,0 -27.027,-16.646 -27.027,-37.179 0,-20.533 12.104,-37.18 27.027,-37.18 14.926,0 27.029,16.648 27.029,37.18"
   id="path7" />
<path
   d="m 655.70278,601.61665 c 0,0 82.608,-36.576 105.154,45.062 0,0 23.618,95.154 -67.837,100.525 0,0 -116.622,-22.462 -37.317,-145.587"
   id="path8" />
<rect
   x="262.33777"
   y="239.25566"
   fill="none"
   width="1060"
   height="782"
   id="rect8" />
<g
   id="g11"
   transform="translate(-15.662225,220.25565)">
	<defs
   id="defs8">
		<rect
   id="SVGID_1_"
   x="278.06"
   y="19.313999"
   width="1059.75"
   height="781.68597" />
	</defs>
	<clipPath
   id="SVGID_2_">
		<use
   xlink:href="#SVGID_1_"
   overflow="visible"
   id="use8" />
	</clipPath>
	<path
   clip-path="url(#SVGID_2_)"
   fill="#ffffff"
   d="m 712.855,416.668 c 0,21.173 -12.48,38.346 -27.877,38.346 -15.391,0 -27.874,-17.173 -27.874,-38.346 0,-21.178 12.483,-38.346 27.874,-38.346 15.397,0 27.877,17.168 27.877,38.346"
   id="path9" />
	<path
   clip-path="url(#SVGID_2_)"
   fill="#e33b26"
   d="m 389.602,518.216 c 10.967,-12.463 37.611,-27.557 35.57,-46.282 -3.653,-33.526 -31.456,-57.999 -62.099,-54.658 -7.599,0.827 -14.658,3.292 -20.923,7.035 -0.463,-0.106 -0.925,-0.211 -1.388,-0.294 0,0 -103.632,50.873 -44.564,152.657 0.557,5.137 117.847,155.668 150.787,167.131 21.559,7.502 -19.911,-128.64 -57.383,-225.589"
   id="path10" />
	<path
   clip-path="url(#SVGID_2_)"
   fill="#e33b26"
   d="m 1231.549,513.673 c -12.692,-10.7 -46.162,-20.418 -46.92,-39.238 -1.355,-33.697 22.512,-62.021 53.312,-63.26 7.638,-0.308 14.983,1.083 21.734,3.857 0.442,-0.174 0.884,-0.347 1.329,-0.497 0,0 110.025,34.951 66.695,144.366 0.21,5.163 -93.468,171.416 -124.345,187.635 -20.208,10.615 5.507,-131.431 28.195,-232.863"
   id="path11" />
</g>
<rect
   x="262.33777"
   y="239.25566"
   fill="none"
   width="1060"
   height="782"
   id="rect11" />
<path
   fill="#e33b26"
   d="m 1138.6998,734.81365 c 0,0 1.382,137.296 -133.167,167.933 l -28.05502,-56.363 c 0,0 97.49502,9.431 104.99502,-111.569 h 56.227"
   id="path12" />
<path
   fill="#e33b26"
   d="m 1041.5048,874.84665 c -20.25,-48.941 -85.59502,-68.373 -145.95102,-43.399 -53.126,21.98 -84.637,71.031 -77.624,115.845 41.946,-0.652 86.94,-3.371 130.736,-9.718 0,0 -25.837,41.763 -63.857,78.21105 25.566,6.599 55.383,4.768 84.076,-7.104 60.35702,-24.97405 92.87002,-84.89405 72.62002,-133.83505"
   id="path13" />
<g
   id="g15"
   transform="translate(-15.662225,220.25565)">
	<path
   fill="#e33b26"
   d="m 396.635,512.763 c 0,0 -120.426,65.951 -210.88,-38.262 l 36.479,-51.313 c 0,0 37.649,90.426 147.893,39.991 l 26.508,49.584"
   id="path14" />
	<path
   fill="#e33b26"
   d="m 144.038,392.655 c 0,0 -46.915,-29.995 -114.487,-63.65 -26.115,40.236 -14.816,101.029 28.958,142.974 48.361,46.34 118.025,52.115 155.601,12.901 37.576,-39.214 28.833,-108.569 -19.528,-154.908 -21.437,-20.543 -47.061,-33.103 -72.221,-37.316 17.972,48.703 21.677,99.999 21.677,99.999"
   id="path15" />
</g>
<rect
   x="262.39777"
   y="239.56966"
   fill="none"
   width="1059.75"
   height="781.68597"
   id="rect15" />
<g
   id="g5"
   transform="matrix(1.842982,0,0,1.842982,513.56399,-32.173458)"
   inkscape:label="Muts"><path
     d="m 249.86,197.17 c -13.39,-1.09 -26.77,-2.57 -40.18,-3.18 -23.31,-1.06 -46.34,2.09 -69.32,5.59 -13.6,2.07 -27.28,3.51 -40.9,5.43 -14.87,2.09 -29.7,4.54 -44.59,6.53 a 161.44,161.44 0 0 1 -18.4,1.16 c -5.79,0.11 -9,-2.76 -8.37,-8.55 1.86,-18.27 6.84,-35.39 22.45,-47 6.61,-4.92 9.34,-12.15 13.45,-18.63 5.85,-9.11 11.71,-18.28 14.35,-29 0.51,-2.06 2.73,-5.43 -0.17,-6.3 -3.9,-1.17 -2.63,3.06 -3.26,5.08 C 69.44,125.76 47.1,134.68 29.51,122.21 17.18,113.46 16.75,100.28 20.17,88.04 23.09,77.7 35.66,69.6 46.63,70 a 27.29,27.29 0 0 1 9.15,2 c 3.57,1.42 6.12,0.42 8.4,-2.6 3.08,-4.07 6.59,-7.88 8.55,-12.65 14.6,-35.44 54.69,-44.89 84.91,-34.25 34.18,12 55.58,36.15 68.28,69.05 a 197.69,197.69 0 0 1 9.08,28.62 c 0.9,4.11 3.48,6.91 7.43,7.59 12,2.06 18.67,10 23.21,20.27 a 91.78,91.78 0 0 1 8.36,34.35 c 0.24,7.56 -2.59,11.29 -9.76,13.42 -4.7,1.39 -9.54,1.35 -14.38,1.37 z M 67.65,146.74 c 3.23,-0.9 5.74,-1.56 8.22,-2.29 48.84,-14.38 98.19,-25 149.6,-20.4 4.05,0.36 4.07,-1.31 3.05,-4.24 -3.22,-9.23 -5.8,-18.75 -9.73,-27.68 C 206.58,64.32 189.61,40.86 159.34,30.25 147.58,26.13 135.62,23.35 123.18,25.52 102.5,29.11 87,39.75 78.66,59.65 c -2.39,5.68 -5.62,11 -10.51,15 -2.13,1.73 -1.16,3 0,4.52 2.41,3.15 5.84,6.07 6.14,10.1 0.53,7 4.51,7.69 10,6.8 0.81,-0.14 1.67,0 2.49,-0.08 8.78,-1.18 17.43,-2.61 23.33,-10.35 2,-2.59 2.74,-5.64 3.68,-8.64 a 3.79,3.79 0 0 1 4.33,-2.58 c 1.71,0.18 1.75,2.11 1.85,3.62 A 14.58,14.58 0 0 1 117.38,87 c -5.65,8.92 -14.31,13.27 -24.24,15.06 -4.91,0.88 -7.65,2.6 -8,7.85 -0.29,3.81 -1.92,7.38 -3.69,10.78 -4.45,8.44 -8.96,16.88 -13.8,26.05 z m 128.12,40.55 a 191.55,191.55 0 0 1 20.47,0.33 c 13.77,1.07 27.48,3.23 41.35,2.47 7.71,-0.42 11.17,-4.62 10,-12.19 a 116.75,116.75 0 0 0 -9.67,-30.74 c -2.07,-4.45 -4.92,-8.41 -9.66,-10.34 a 96.31,96.31 0 0 0 -29,-6.47 c -15.76,-1.21 -31.49,0.11 -47.26,1.43 -33.78,2.83 -66.47,10.29 -98.69,20.51 -23.94,7.6 -34.48,25.28 -38.48,48.52 -0.66,3.87 0.63,4.26 4,4.31 22.94,0.35 45.31,-4.42 67.83,-7.62 29.58,-4.2 59.13,-9.07 89.11,-10.21 z M 69.17,99.37 C 68.88,85.14 60.08,76.91 46,76.82 34.48,76.75 24.16,88 24.83,99.15 c 0.8,13.6 9.27,23.1 21.86,22.65 10.76,-0.38 23.69,-7.29 22.48,-22.43 z"
     transform="translate(-0.92,-0.92)"
     style="fill:#171414"
     id="path2-3" /><path
     d="m 67.65,146.74 c 4.84,-9.17 9.34,-17.61 13.75,-26.09 1.77,-3.4 3.4,-7 3.69,-10.78 0.4,-5.25 3.14,-7 8,-7.85 9.93,-1.79 18.59,-6.14 24.24,-15.06 A 14.58,14.58 0 0 0 120,78 c -0.1,-1.51 -0.14,-3.44 -1.85,-3.62 A 3.79,3.79 0 0 0 113.83,77 c -0.94,3 -1.7,6.05 -3.68,8.64 -5.9,7.73 -14.55,9.16 -23.33,10.36 -0.82,0.11 -1.68,-0.06 -2.49,0.08 -5.49,0.89 -9.47,0.19 -10,-6.8 -0.3,-4 -3.73,-7 -6.14,-10.1 -1.2,-1.57 -2.17,-2.79 0,-4.52 4.89,-4 8.12,-9.31 10.51,-15 8.3,-19.91 23.8,-30.55 44.48,-34.14 12.44,-2.17 24.4,0.61 36.16,4.73 30.27,10.61 47.24,34.07 59.45,61.88 3.93,8.93 6.51,18.45 9.73,27.68 1,2.93 1,4.6 -3.05,4.24 -51.41,-4.58 -100.76,6 -149.6,20.4 -2.48,0.73 -4.99,1.39 -8.22,2.29 z"
     transform="translate(-0.92,-0.92)"
     style="fill:#e42520"
     id="path3-2" /><path
     d="m 195.77,187.29 c -30,1.14 -59.53,6 -89.17,10.21 -22.52,3.2 -44.89,8 -67.83,7.62 -3.36,-0.05 -4.65,-0.44 -4,-4.31 4,-23.24 14.54,-40.92 38.48,-48.52 32.22,-10.22 64.91,-17.68 98.69,-20.51 15.77,-1.32 31.5,-2.64 47.26,-1.43 a 96.31,96.31 0 0 1 29,6.47 c 4.74,1.93 7.59,5.89 9.66,10.34 a 116.75,116.75 0 0 1 9.67,30.74 c 1.21,7.57 -2.25,11.77 -10,12.19 -13.87,0.76 -27.58,-1.4 -41.35,-2.47 a 191.55,191.55 0 0 0 -20.41,-0.33 z"
     transform="translate(-0.92,-0.92)"
     style="fill:#ffffff"
     id="path4-9" /><path
     d="m 69.17,99.37 c 1.21,15.14 -11.72,22 -22.48,22.43 C 34.1,122.25 25.63,112.8 24.83,99.15 24.16,88 34.48,76.75 46,76.82 c 14.08,0.09 22.88,8.32 23.17,22.55 z"
     transform="translate(-0.92,-0.92)"
     style="fill:#ffffff"
     id="path5-3" /></g></svg>
